<svg xmlns="http://www.w3.org/2000/svg" viewBox="0 0 17 17"><defs><style>.cls-1{fill:none;stroke:#000;stroke-linecap:round;stroke-linejoin:round;}</style></defs><title>club</title><g id="Layer_2" data-name="Layer 2"><g id="Layer_1-2" data-name="Layer 1"><line class="cls-1" x1="5.53" y1="16.5" x2="11.53" y2="16.5"/><path class="cls-1" d="M8.53,11.5V15A1.5,1.5,0,0,1,7,16.5H7"/><path class="cls-1" d="M8.53,11.5V15A1.5,1.5,0,0,0,10,16.5h0"/><path class="cls-1" d="M8.5,9.5a4,4,0,1,0,4-4h-.15a3.74,3.74,0,0,0,.15-1,4,4,0,0,0-8,0,3.74,3.74,0,0,0,.15,1H4.5a4,4,0,1,0,4,4"/></g></g></svg>