<svg xmlns="http://www.w3.org/2000/svg" viewBox="0 0 14.55 17"><defs><style>.cls-1{fill:none;stroke:#000;stroke-linecap:round;stroke-linejoin:round;}</style></defs><title>spade</title><g id="Layer_2" data-name="Layer 2"><g id="Layer_1-2" data-name="Layer 1"><path class="cls-1" d="M1.58,11.42a3.69,3.69,0,0,0,5.22,0L7.27,11l.47.47A3.69,3.69,0,1,0,13,6.2l-.47-.47L7.27.5,2.05,5.73l-.47.47A3.69,3.69,0,0,0,1.58,11.42Z"/><line class="cls-1" x1="4.31" y1="16.5" x2="10.31" y2="16.5"/><path class="cls-1" d="M7.31,11.5V15a1.5,1.5,0,0,1-1.5,1.5h0"/><path class="cls-1" d="M7.31,11.5V15a1.5,1.5,0,0,0,1.5,1.5h0"/></g></g></svg>